<svg width="13" height="11" viewBox="0 0 13 11" fill="none" xmlns="http://www.w3.org/2000/svg">
<path d="M6.5 0C2.90875 0 0 2.52518 0 5.63957C0 8.13175 1.86225 10.2452 4.44438 10.9903C4.76938 11.0434 4.88854 10.8688 4.88854 10.7191C4.88854 10.5852 4.88313 10.2303 4.88042 9.7602C3.07233 10.1002 2.691 9.0036 2.691 9.0036C2.39525 8.3527 1.96788 8.17862 1.96788 8.17862C1.37908 7.82901 2.01338 7.83619 2.01338 7.83619C2.66608 7.8754 3.00896 8.41727 3.00896 8.41727C3.58854 9.27956 4.5305 9.03039 4.90208 8.88643C4.96058 8.52152 5.12796 8.27331 5.31375 8.13223C3.87021 7.99114 2.353 7.50619 2.353 5.34544C2.353 4.72993 2.60488 4.22681 3.02196 3.83225C2.94883 3.68973 2.72946 3.1163 3.07883 2.33962C3.07883 2.33962 3.62321 2.18849 4.86633 2.91783C5.38633 2.79252 5.93883 2.73035 6.49133 2.72748C7.04383 2.73035 7.59633 2.79252 8.11633 2.91783C9.35133 2.18849 9.89571 2.33962 9.89571 2.33962C10.2451 3.1163 10.0257 3.68973 9.96071 3.83225C10.3751 4.22681 10.627 4.72993 10.627 5.34544C10.627 7.51193 9.10758 7.98875 7.66133 8.12744C7.88883 8.29675 8.10008 8.64252 8.10008 9.17099C8.10008 9.92568 8.09196 10.5321 8.09196 10.7153C8.09196 10.8631 8.20571 11.0395 8.53883 10.9831C11.1394 10.2428 13 8.12792 13 5.63957C13 2.52518 10.0896 0 6.5 0Z" fill="white"/>
</svg>
