<svg width="13" height="12" viewBox="0 0 13 12" fill="none" xmlns="http://www.w3.org/2000/svg">
<path d="M6.73631 2.84301C4.95942 2.84301 3.52089 4.16457 3.52089 5.79376C3.52089 7.42438 4.96099 8.7445 6.73631 8.7445C8.5132 8.7445 9.95173 7.42294 9.95173 5.79376C9.95173 4.16313 8.51163 2.84301 6.73631 2.84301ZM6.73631 7.70901C5.58287 7.70901 4.64926 6.85177 4.64926 5.79376C4.64926 4.73574 5.58339 3.8785 6.73631 3.8785C7.88922 3.8785 8.82335 4.73574 8.82335 5.79376C8.82388 6.85177 7.88974 7.70901 6.73631 7.70901Z" fill="white"/>
<path d="M9.31783 0.0820217C8.16492 0.0326669 5.30926 0.0350627 4.1553 0.0820217C3.14128 0.125626 2.24683 0.350358 1.52574 1.0121C0.320611 2.11803 0.474646 3.60825 0.474646 5.79376C0.474646 8.03054 0.338886 9.48627 1.52574 10.5754C2.73557 11.6852 4.38296 11.54 6.73631 11.54C9.15074 11.54 9.9841 11.5414 10.8378 11.2381C11.9986 10.8246 12.8747 9.87248 12.9604 8.16231C13.0147 7.10382 13.0115 4.4837 12.9604 3.42473C12.857 1.40598 11.6764 0.18169 9.31783 0.0820217ZM11.1428 9.84373C10.3527 10.5687 9.25674 10.504 6.72116 10.504C4.1104 10.504 3.06348 10.5395 2.29957 9.83654C1.41974 9.03297 1.579 7.74256 1.579 5.78609C1.579 3.13866 1.28294 1.23204 4.17828 1.09595C4.8435 1.07439 5.03931 1.0672 6.71385 1.0672L6.73735 1.08158C9.5199 1.08158 11.703 0.814197 11.8341 3.47073C11.8638 4.07688 11.8706 4.25897 11.8706 5.79328C11.8701 8.16135 11.9192 9.12784 11.1428 9.84373Z" fill="white"/>
<path d="M10.0791 3.41611C10.4941 3.41611 10.8305 3.10739 10.8305 2.72658C10.8305 2.34576 10.4941 2.03705 10.0791 2.03705C9.66415 2.03705 9.32774 2.34576 9.32774 2.72658C9.32774 3.10739 9.66415 3.41611 10.0791 3.41611Z" fill="white"/>
</svg>
