<svg width="14" height="12" viewBox="0 0 14 12" fill="none" xmlns="http://www.w3.org/2000/svg">
<path d="M13.2628 11.5001V11.4997H13.2659V7.28199C13.2659 5.21867 12.7819 3.62925 10.1534 3.62925C8.88976 3.62925 8.04179 4.26559 7.6956 4.86887H7.65905V3.82188H5.16681V11.4997H7.76191V7.69791C7.76191 6.69692 7.96868 5.72899 9.31949 5.72899C10.6505 5.72899 10.6703 6.87133 10.6703 7.76212V11.5001H13.2628Z" fill="white"/>
<path d="M0.94101 3.82235H3.53924V11.5001H0.94101V3.82235Z" fill="white"/>
<path d="M2.2391 0C1.40835 0 0.734253 0.618612 0.734253 1.38098C0.734253 2.14334 1.40835 2.77489 2.2391 2.77489C3.06984 2.77489 3.74394 2.14334 3.74394 1.38098C3.74342 0.618612 3.06932 0 2.2391 0V0Z" fill="white"/>
</svg>
